Papa Roach - Time And Time Again Music Video

General
Complete name                    : Time And Time Again
Format                           : Flash Video
File size                        : 29.6 MiB
Duration                         : 3mn 6s
Overall bit rate                 : 1 327 Kbps

Video
Format                           : AVC
Format/Info                      : Advanced Video Codec
Format profile                   : Main@L3.0
Format settings, CABAC           : Yes
Format settings, ReFrames        : 3 frames
Format settings, GOP             : M=1, N=16
Muxing mode                      : Container profile=Unknown@3.0
Duration                         : 3mn 6s
Bit rate                         : 1 201 Kbps
Width                            : 854 pixels
Height                           : 480 pixels
Display aspect ratio             : 16:9
Frame rate mode                  : Constant
Frame rate                       : 23.976 fps
Color space                      : YUV
Chroma subsampling               : 4:2:0
Bit depth                        : 8 bits
Scan type                        : Progressive
Bits/(Pixel*Frame)               : 0.122
Stream size                      : 26.7 MiB (90%)

Audio
Format                           : AAC
Format/Info                      : Advanced Audio Codec
Format version                   : Version 4
Format profile                   : LC
Format settings, SBR             : No
Duration                         : 3mn 6s
Bit rate                         : 122 Kbps
Channel(s)                       : 2 channels
Channel positions                : Front: L R
Sampling rate                    : 44.1 KHz
Bit depth                        : 16 bits
Stream size                      : 2.71 MiB (9%)